:SAMPLES-PER-SECOND 30
:FULLY-SPECIFIED
:DEGREES
96
root  -21.1913 38.9868 -36.7041 3.1519 -36.4847 -7.21035
RightUpLeg  -10.7677 -11.6111 -9.13644
RightLeg  20.6402 7.59723 3.00073
RightFoot  -7.54627 -0.601259 16.4935
RightToes  -5.8209e-011 0 -3.6325e-017
Spine  3.30787 -2.37067 9.50337
Spine1  11.0416 -2.34513 0.9762
HEad  -9.74715 12.2933 -12.5727
LeftShoulder1  9.41535 -13.2107 -49.1793
LeftArm  -6.01215 12.2826 -30.965
LeftForeArm  27.0486 -25.813 -4.08667
LeftHand  -0.244104 0.0205437 5.32207
RightShoulder  6.43966 10.2553 40.6286
RightArm  2.24939 -12.4483 28.7637
RightForeArm  1.77634 13.9169 7.32112
RightHand  -1.80989 4.2783 -21.7589
LeftUpLeg  -16.0727 -1.59098 3.82633
LeftLeg  62.7807 1.60085 3.98522
LeftFoot  -7.39522 0.109194 -1.92872
LeftToes  5.72949e-011 -2.03295e-011 6.54899e-012
97
root  -22.083 39.376 -36.3648 2.64727 -31.8802 -5.28791
RightUpLeg  -7.87304 -13.7923 -10.3221
RightLeg  18.723 5.52416 2.2576
RightFoot  -8.22683 -0.499368 16.1863
RightToes  -5.8209e-011 0 -3.6325e-017
Spine  3.39135 -1.74626 8.3692
Spine1  10.3567 -1.68356 0.682714
HEad  -9.67809 12.0736 -11.8821
LeftShoulder1  9.431 -13.2081 -49.269
LeftArm  -3.52438 13.2622 -30.3126
LeftForeArm  23.7319 -23.2625 -3.76276
LeftHand  -0.244104 0.0205437 5.32207
RightShoulder  6.40578 10.2236 40.4976
RightArm  2.83004 -9.31806 29.5255
RightForeArm  -0.178466 15.1592 6.9845
RightHand  -1.78988 4.18139 -21.7332
LeftUpLeg  -21.0799 3.85253 2.17936
LeftLeg  63.9568 1.06574 3.05736
LeftFoot  -8.33006 0.135695 -3.25501
LeftToes  5.72949e-011 -2.03295e-011 6.54899e-012
98
root  -22.9245 39.6733 -35.9452 2.6502 -26.3884 -3.85056
RightUpLeg  -4.66201 -15.4712 -11.3521
RightLeg  16.6896 1.78048 1.72776
RightFoot  -8.96547 -0.381861 15.3685
RightToes  -5.8209e-011 0 -3.6325e-017
Spine  3.30724 -1.57996 7.8201
Spine1  9.71691 -1.4109 0.11271
HEad  -9.7097 11.1992 -11.5763
LeftShoulder1  9.45175 -13.2689 -49.1984
LeftArm  -2.04826 14.9732 -28.8849
LeftForeArm  22.702 -22.3134 -3.77922
LeftHand  -0.244104 0.0205437 5.32207
RightShoulder  6.29215 10.0957 40.1227
RightArm  4.27421 -6.94874 30.5853
RightForeArm  -3.45344 18.3227 6.04775
RightHand  -1.69891 3.85513 -21.363
LeftUpLeg  -25.8896 7.0597 -0.224289
LeftLeg  62.9798 0.778635 2.30195
LeftFoot  -8.65739 0.153534 -4.32657
LeftToes  5.72949e-011 -2.03295e-011 6.54899e-012
99
root  -23.7213 39.9004 -35.4532 2.87307 -20.8839 -2.64856
RightUpLeg  -1.31242 -15.3627 -12.1812
RightLeg  14.3748 -3.64092 1.61303
RightFoot  -9.4139 -0.308251 14.4421
RightToes  -5.8209e-011 0 -3.6325e-017
Spine  3.41839 -1.35203 7.41783
Spine1  8.93988 -1.05623 -0.552787
HEad  -9.89451 9.62728 -11.1914
LeftShoulder1  9.38406 -13.2442 -48.9173
LeftArm  -0.791544 16.5777 -27.3305
LeftForeArm  22.8979 -21.8426 -3.80965
LeftHand  -0.244104 0.0205437 5.32207
RightShoulder  6.19006 9.94992 39.8791
RightArm  4.30229 -5.58922 30.9146
RightForeArm  -5.40345 23.4586 5.33687
RightHand  -1.58456 3.38856 -20.9891
LeftUpLeg  -30.1497 8.60264 -3.01756
LeftLeg  59.9789 1.46666 3.30357
LeftFoot  -8.85471 0.140105 -3.98088
LeftToes  5.72949e-011 -2.03295e-011 6.54899e-012
100
root  -24.4622 40.0582 -34.8957 3.23635 -16.2538 -1.4728
RightUpLeg  1.81205 -14.3446 -12.8557
RightLeg  11.8271 -8.87117 2.13605
RightFoot  -9.89593 -0.248704 14.3276
RightToes  -5.8209e-011 0 -3.6325e-017
Spine  3.58398 -0.792549 7.02066
Spine1  8.39926 -0.320491 -1.44908
HEad  -10.1447 7.63505 -11.0272
LeftShoulder1  9.25656 -13.1022 -48.6638
LeftArm  0.0642996 17.7983 -25.7473
LeftForeArm  23.0923 -21.5342 -3.84065
LeftHand  -0.244104 0.0205437 5.32207
RightShoulder  6.15105 9.85285 39.9191
RightArm  0.619385 -4.58656 30.2198
RightForeArm  -4.05733 29.2799 6.56207
RightHand  -1.48196 2.88298 -20.8241
LeftUpLeg  -33.5746 9.69294 -5.86433
LeftLeg  54.9911 2.54949 4.41731
LeftFoot  -9.24729 0.107518 -2.8585
LeftToes  5.72949e-011 -2.03295e-011 6.54899e-012
101
root  -25.1386 40.1024 -34.2655 3.72917 -12.4386 -0.558799
RightUpLeg  4.58481 -13.3959 -13.106
RightLeg  9.57854 -13.2815 2.91518
RightFoot  -10.6986 -0.155503 14.573
RightToes  -5.8209e-011 0 -3.6325e-017
Spine  3.6952 -0.148655 6.94811
Spine1  8.3075 0.551226 -2.50116
HEad  -10.7104 5.45171 -10.7354
LeftShoulder1  9.13397 -12.9525 -48.454
LeftArm  0.0591404 18.8948 -24.1201
LeftForeArm  22.5649 -21.4153 -3.87551
LeftHand  -0.244104 0.0205437 5.32207
RightShoulder  6.12062 9.7842 39.9273
RightArm  -2.18249 -3.21972 29.3611
RightForeArm  -4.01047 34.766 8.03037
RightHand  -1.39731 2.46848 -20.6638
LeftUpLeg  -35.9076 10.2104 -8.14473
LeftLeg  48.2186 3.14251 4.21131
LeftFoot  -9.06542 0.100989 -2.33063
LeftToes  5.72949e-011 -2.03295e-011 6.54899e-012
102
root  -25.7512 40.0553 -33.5537 4.12327 -9.44379 0.0207948
RightUpLeg  6.98801 -12.7302 -12.7655
RightLeg  8.00603 -16.8699 3.28386
RightFoot  -11.4489 -0.0652066 14.1365
RightToes  -5.8209e-011 0 -3.6325e-017
Spine  4.08786 0.442438 7.14818
Spine1  8.33417 1.42136 -3.61745
HEad  -11.5181 3.65943 -10.2434
LeftShoulder1  9.00306 -12.8213 -48.1399
LeftArm  -1.2261 20.2317 -22.6913
LeftForeArm  21.5848 -21.2914 -3.90268
LeftHand  -0.244104 0.0205437 5.32207
RightShoulder  6.05053 9.696 39.7155
RightArm  -4.21703 -1.31549 28.739
RightForeArm  -3.85233 39.0336 9.31313
RightHand  -1.2854 2.0527 -20.0703
LeftUpLeg  -36.775 9.922 -9.4694
LeftLeg  39.6644 3.06633 3.11233
LeftFoot  -7.76776 0.113683 -2.16591
LeftToes  5.72949e-011 -2.03295e-011 6.54899e-012
103
root  -26.3 39.9603 -32.7476 4.29432 -7.62023 0.484024
RightUpLeg  9.14106 -12.294 -12.3593
RightLeg  6.90795 -18.9446 3.329
RightFoot  -12.1322 0.0125013 13.6812
RightToes  -5.8209e-011 0 -3.6325e-017
Spine  4.86089 1.08031 7.20527
Spine1  8.30022 2.39926 -4.77071
HEad  -12.4251 2.55457 -9.62596
LeftShoulder1  8.83671 -12.6465 -47.756
LeftArm  -3.78116 21.9866 -21.7171
LeftForeArm  20.6485 -20.8375 -3.92014
LeftHand  -0.244104 0.0205437 5.32207
RightShoulder  6.00204 9.65505 39.501
RightArm  -5.72163 0.889553 28.2215
RightForeArm  -2.76076 41.9005 10.2206
RightHand  -1.10472 1.35727 -19.029
LeftUpLeg  -36.3245 9.50255 -10.1287
LeftLeg  29.7174 2.44265 1.87453
LeftFoot  -5.62843 0.101849 -1.39256
LeftToes  5.72949e-011 -2.03295e-011 6.54899e-012
